<mxfile host="app.diagrams.net" agent="Mozilla/5.0 (Windows NT 10.0; Win64; x64) AppleWebKit/537.36 (KHTML, like Gecko) Chrome/129.0.0.0 Safari/537.36" version="24.7.17">
  <diagram name="Trang-1" id="Me5kF1kEoMuEjLetQSzV">
    <mxGraphModel dx="1105" dy="635" grid="1" gridSize="10" guides="1" tooltips="1" connect="1" arrows="1" fold="1" page="1" pageScale="1" pageWidth="827" pageHeight="1169" math="0" shadow="0">
      <root>
        <mxCell id="0" />
        <mxCell id="1" parent="0" />
        <mxCell id="HC4XpOw8uB_TnKQAAysr-1" value="Start" style="ellipse;whiteSpace=wrap;html=1;" vertex="1" parent="1">
          <mxGeometry x="522" width="120" height="80" as="geometry" />
        </mxCell>
        <mxCell id="HC4XpOw8uB_TnKQAAysr-2" value="" style="endArrow=classic;html=1;rounded=0;exitX=0.5;exitY=1;exitDx=0;exitDy=0;" edge="1" parent="1" source="HC4XpOw8uB_TnKQAAysr-1">
          <mxGeometry width="50" height="50" relative="1" as="geometry">
            <mxPoint x="592" y="180" as="sourcePoint" />
            <mxPoint x="582" y="150" as="targetPoint" />
          </mxGeometry>
        </mxCell>
        <mxCell id="HC4XpOw8uB_TnKQAAysr-3" value="Input height,weight" style="shape=parallelogram;perimeter=parallelogramPerimeter;whiteSpace=wrap;html=1;fixedSize=1;" vertex="1" parent="1">
          <mxGeometry x="514" y="150" width="140" height="60" as="geometry" />
        </mxCell>
        <mxCell id="HC4XpOw8uB_TnKQAAysr-4" value="" style="endArrow=classic;html=1;rounded=0;exitX=0.451;exitY=0.99;exitDx=0;exitDy=0;exitPerimeter=0;" edge="1" parent="1" source="HC4XpOw8uB_TnKQAAysr-3">
          <mxGeometry width="50" height="50" relative="1" as="geometry">
            <mxPoint x="562" y="300" as="sourcePoint" />
            <mxPoint x="577" y="270" as="targetPoint" />
          </mxGeometry>
        </mxCell>
        <mxCell id="HC4XpOw8uB_TnKQAAysr-5" value="BMI = Weight/(Height*Height)" style="rounded=0;whiteSpace=wrap;html=1;" vertex="1" parent="1">
          <mxGeometry x="512" y="270" width="140" height="70" as="geometry" />
        </mxCell>
        <mxCell id="HC4XpOw8uB_TnKQAAysr-6" value="" style="endArrow=classic;html=1;rounded=0;exitX=0.5;exitY=1;exitDx=0;exitDy=0;" edge="1" parent="1" source="HC4XpOw8uB_TnKQAAysr-5">
          <mxGeometry width="50" height="50" relative="1" as="geometry">
            <mxPoint x="572" y="420" as="sourcePoint" />
            <mxPoint x="582" y="390" as="targetPoint" />
          </mxGeometry>
        </mxCell>
        <mxCell id="HC4XpOw8uB_TnKQAAysr-7" value="&amp;nbsp;BMI &amp;lt; 18.5&amp;nbsp;" style="rhombus;whiteSpace=wrap;html=1;" vertex="1" parent="1">
          <mxGeometry x="542" y="390" width="80" height="80" as="geometry" />
        </mxCell>
        <mxCell id="HC4XpOw8uB_TnKQAAysr-8" value="" style="endArrow=classic;html=1;rounded=0;exitX=0;exitY=0.5;exitDx=0;exitDy=0;" edge="1" parent="1" source="HC4XpOw8uB_TnKQAAysr-7">
          <mxGeometry width="50" height="50" relative="1" as="geometry">
            <mxPoint x="422" y="450" as="sourcePoint" />
            <mxPoint x="442" y="430" as="targetPoint" />
          </mxGeometry>
        </mxCell>
        <mxCell id="HC4XpOw8uB_TnKQAAysr-9" value="18.5 ≤ BMI &amp;lt; 24.9&amp;nbsp;" style="rhombus;whiteSpace=wrap;html=1;" vertex="1" parent="1">
          <mxGeometry x="332" y="390" width="110" height="80" as="geometry" />
        </mxCell>
        <mxCell id="HC4XpOw8uB_TnKQAAysr-10" value="False" style="text;html=1;align=center;verticalAlign=middle;resizable=0;points=[];autosize=1;strokeColor=none;fillColor=none;" vertex="1" parent="1">
          <mxGeometry x="467" y="398" width="50" height="30" as="geometry" />
        </mxCell>
        <mxCell id="HC4XpOw8uB_TnKQAAysr-12" value="" style="endArrow=classic;html=1;rounded=0;exitX=0;exitY=0.5;exitDx=0;exitDy=0;" edge="1" parent="1" source="HC4XpOw8uB_TnKQAAysr-9">
          <mxGeometry width="50" height="50" relative="1" as="geometry">
            <mxPoint x="242" y="440" as="sourcePoint" />
            <mxPoint x="272" y="430" as="targetPoint" />
          </mxGeometry>
        </mxCell>
        <mxCell id="HC4XpOw8uB_TnKQAAysr-13" value="25 ≤ BMI &amp;lt; 29.9" style="rhombus;whiteSpace=wrap;html=1;" vertex="1" parent="1">
          <mxGeometry x="192" y="390" width="80" height="80" as="geometry" />
        </mxCell>
        <mxCell id="HC4XpOw8uB_TnKQAAysr-14" value="False" style="text;html=1;align=center;verticalAlign=middle;resizable=0;points=[];autosize=1;strokeColor=none;fillColor=none;" vertex="1" parent="1">
          <mxGeometry x="277" y="398" width="50" height="30" as="geometry" />
        </mxCell>
        <mxCell id="HC4XpOw8uB_TnKQAAysr-17" value="" style="endArrow=classic;html=1;rounded=0;exitX=0;exitY=0.5;exitDx=0;exitDy=0;" edge="1" parent="1" source="HC4XpOw8uB_TnKQAAysr-13">
          <mxGeometry width="50" height="50" relative="1" as="geometry">
            <mxPoint x="100" y="450" as="sourcePoint" />
            <mxPoint x="130" y="430" as="targetPoint" />
          </mxGeometry>
        </mxCell>
        <mxCell id="HC4XpOw8uB_TnKQAAysr-18" value="BMI ≥ 30" style="rhombus;whiteSpace=wrap;html=1;" vertex="1" parent="1">
          <mxGeometry x="50" y="390" width="80" height="80" as="geometry" />
        </mxCell>
        <mxCell id="HC4XpOw8uB_TnKQAAysr-19" value="False" style="text;html=1;align=center;verticalAlign=middle;resizable=0;points=[];autosize=1;strokeColor=none;fillColor=none;" vertex="1" parent="1">
          <mxGeometry x="135" y="398" width="50" height="30" as="geometry" />
        </mxCell>
        <mxCell id="HC4XpOw8uB_TnKQAAysr-20" value="" style="endArrow=classic;html=1;rounded=0;exitX=0.5;exitY=1;exitDx=0;exitDy=0;" edge="1" parent="1" source="HC4XpOw8uB_TnKQAAysr-7">
          <mxGeometry width="50" height="50" relative="1" as="geometry">
            <mxPoint x="580" y="520" as="sourcePoint" />
            <mxPoint x="582" y="530" as="targetPoint" />
          </mxGeometry>
        </mxCell>
        <mxCell id="HC4XpOw8uB_TnKQAAysr-21" value="Status: &quot;Thin&quot;" style="rounded=0;whiteSpace=wrap;html=1;" vertex="1" parent="1">
          <mxGeometry x="524" y="525" width="120" height="60" as="geometry" />
        </mxCell>
        <mxCell id="HC4XpOw8uB_TnKQAAysr-22" value="" style="endArrow=classic;html=1;rounded=0;exitX=0.5;exitY=1;exitDx=0;exitDy=0;" edge="1" parent="1" source="HC4XpOw8uB_TnKQAAysr-9">
          <mxGeometry width="50" height="50" relative="1" as="geometry">
            <mxPoint x="380" y="530" as="sourcePoint" />
            <mxPoint x="387" y="520" as="targetPoint" />
          </mxGeometry>
        </mxCell>
        <mxCell id="HC4XpOw8uB_TnKQAAysr-23" value="Status: &quot;Normal&quot;" style="rounded=0;whiteSpace=wrap;html=1;" vertex="1" parent="1">
          <mxGeometry x="332" y="520" width="120" height="60" as="geometry" />
        </mxCell>
        <mxCell id="HC4XpOw8uB_TnKQAAysr-24" value="" style="endArrow=classic;html=1;rounded=0;exitX=0.5;exitY=1;exitDx=0;exitDy=0;" edge="1" parent="1" source="HC4XpOw8uB_TnKQAAysr-13">
          <mxGeometry width="50" height="50" relative="1" as="geometry">
            <mxPoint x="220" y="530" as="sourcePoint" />
            <mxPoint x="232" y="520" as="targetPoint" />
          </mxGeometry>
        </mxCell>
        <mxCell id="HC4XpOw8uB_TnKQAAysr-25" value="Status: &quot;Fat&quot;" style="rounded=0;whiteSpace=wrap;html=1;" vertex="1" parent="1">
          <mxGeometry x="172" y="520" width="120" height="60" as="geometry" />
        </mxCell>
        <mxCell id="HC4XpOw8uB_TnKQAAysr-26" value="" style="endArrow=classic;html=1;rounded=0;exitX=0.5;exitY=1;exitDx=0;exitDy=0;" edge="1" parent="1" source="HC4XpOw8uB_TnKQAAysr-18">
          <mxGeometry width="50" height="50" relative="1" as="geometry">
            <mxPoint x="80" y="540" as="sourcePoint" />
            <mxPoint x="90" y="520" as="targetPoint" />
          </mxGeometry>
        </mxCell>
        <mxCell id="HC4XpOw8uB_TnKQAAysr-27" value="Status: &quot;Obesity&quot;" style="rounded=0;whiteSpace=wrap;html=1;" vertex="1" parent="1">
          <mxGeometry x="30" y="520" width="120" height="60" as="geometry" />
        </mxCell>
        <mxCell id="HC4XpOw8uB_TnKQAAysr-29" value="Print BMI&lt;div&gt;Print Status&lt;/div&gt;" style="shape=parallelogram;perimeter=parallelogramPerimeter;whiteSpace=wrap;html=1;fixedSize=1;" vertex="1" parent="1">
          <mxGeometry x="523" y="670" width="120" height="60" as="geometry" />
        </mxCell>
        <mxCell id="HC4XpOw8uB_TnKQAAysr-30" value="True" style="text;html=1;align=center;verticalAlign=middle;resizable=0;points=[];autosize=1;strokeColor=none;fillColor=none;" vertex="1" parent="1">
          <mxGeometry x="585" y="478" width="50" height="30" as="geometry" />
        </mxCell>
        <mxCell id="HC4XpOw8uB_TnKQAAysr-31" value="True" style="text;html=1;align=center;verticalAlign=middle;resizable=0;points=[];autosize=1;strokeColor=none;fillColor=none;" vertex="1" parent="1">
          <mxGeometry x="385" y="468" width="50" height="30" as="geometry" />
        </mxCell>
        <mxCell id="HC4XpOw8uB_TnKQAAysr-32" value="True" style="text;html=1;align=center;verticalAlign=middle;resizable=0;points=[];autosize=1;strokeColor=none;fillColor=none;" vertex="1" parent="1">
          <mxGeometry x="235" y="468" width="50" height="30" as="geometry" />
        </mxCell>
        <mxCell id="HC4XpOw8uB_TnKQAAysr-33" value="True" style="text;html=1;align=center;verticalAlign=middle;resizable=0;points=[];autosize=1;strokeColor=none;fillColor=none;" vertex="1" parent="1">
          <mxGeometry x="85" y="470" width="50" height="30" as="geometry" />
        </mxCell>
        <mxCell id="HC4XpOw8uB_TnKQAAysr-35" value="" style="endArrow=none;html=1;rounded=0;exitX=0.5;exitY=1;exitDx=0;exitDy=0;" edge="1" parent="1" source="HC4XpOw8uB_TnKQAAysr-27">
          <mxGeometry width="50" height="50" relative="1" as="geometry">
            <mxPoint x="230" y="650" as="sourcePoint" />
            <mxPoint x="90" y="630" as="targetPoint" />
          </mxGeometry>
        </mxCell>
        <mxCell id="HC4XpOw8uB_TnKQAAysr-36" value="" style="endArrow=none;html=1;rounded=0;exitX=0.5;exitY=1;exitDx=0;exitDy=0;" edge="1" parent="1" source="HC4XpOw8uB_TnKQAAysr-25">
          <mxGeometry width="50" height="50" relative="1" as="geometry">
            <mxPoint x="250" y="650" as="sourcePoint" />
            <mxPoint x="232" y="630" as="targetPoint" />
          </mxGeometry>
        </mxCell>
        <mxCell id="HC4XpOw8uB_TnKQAAysr-37" value="" style="endArrow=none;html=1;rounded=0;exitX=0.5;exitY=1;exitDx=0;exitDy=0;" edge="1" parent="1" source="HC4XpOw8uB_TnKQAAysr-23">
          <mxGeometry width="50" height="50" relative="1" as="geometry">
            <mxPoint x="410" y="640" as="sourcePoint" />
            <mxPoint x="392" y="630" as="targetPoint" />
          </mxGeometry>
        </mxCell>
        <mxCell id="HC4XpOw8uB_TnKQAAysr-39" value="" style="endArrow=none;html=1;rounded=0;" edge="1" parent="1">
          <mxGeometry width="50" height="50" relative="1" as="geometry">
            <mxPoint x="90" y="630" as="sourcePoint" />
            <mxPoint x="580" y="630" as="targetPoint" />
          </mxGeometry>
        </mxCell>
        <mxCell id="HC4XpOw8uB_TnKQAAysr-41" value="" style="endArrow=classic;html=1;rounded=0;exitX=0.5;exitY=1;exitDx=0;exitDy=0;entryX=0.5;entryY=0;entryDx=0;entryDy=0;" edge="1" parent="1" source="HC4XpOw8uB_TnKQAAysr-21" target="HC4XpOw8uB_TnKQAAysr-29">
          <mxGeometry width="50" height="50" relative="1" as="geometry">
            <mxPoint x="590" y="640" as="sourcePoint" />
            <mxPoint x="640" y="590" as="targetPoint" />
          </mxGeometry>
        </mxCell>
        <mxCell id="HC4XpOw8uB_TnKQAAysr-42" value="" style="endArrow=classic;html=1;rounded=0;exitX=0.5;exitY=1;exitDx=0;exitDy=0;" edge="1" parent="1" source="HC4XpOw8uB_TnKQAAysr-29">
          <mxGeometry width="50" height="50" relative="1" as="geometry">
            <mxPoint x="590" y="810" as="sourcePoint" />
            <mxPoint x="583" y="800" as="targetPoint" />
          </mxGeometry>
        </mxCell>
        <mxCell id="HC4XpOw8uB_TnKQAAysr-43" value="End" style="ellipse;whiteSpace=wrap;html=1;" vertex="1" parent="1">
          <mxGeometry x="524" y="800" width="120" height="80" as="geometry" />
        </mxCell>
      </root>
    </mxGraphModel>
  </diagram>
</mxfile>
